<svg xmlns="http://www.w3.org/2000/svg" xmlns:svg="http://www.w3.org/2000/svg" id="svg5386" width="32" height="32" version="1.1" viewBox="0 0 32 32"><metadata id="metadata5391"/><g id="layer1" transform="translate(0,-1020.3622)"><rect id="rect4164-4-3" width="23" height="22" x="4.5" y="1024.862" fill="none" fill-opacity="1" stroke="#161a26" stroke-dasharray="none" stroke-dashoffset="0" stroke-linecap="round" stroke-linejoin="miter" stroke-miterlimit="4" stroke-opacity="1" stroke-width="1" display="inline" opacity=".81" rx="2" ry="2"/><rect id="rect4164" width="22" height="21" x="5" y="1025.362" fill="#353945" fill-opacity="1" stroke="none" stroke-dasharray="none" stroke-dashoffset="0" stroke-linecap="round" stroke-linejoin="miter" stroke-miterlimit="4" stroke-opacity="1" stroke-width="1" display="inline" opacity=".95" rx="1.4" ry="1.4"/><g id="g4271" display="inline" opacity=".65" transform="translate(-425.99995,658.36226)"><rect id="rect4164-4-7-5-3-8-8" width="31" height="31" x="426.5" y="362.5" fill="none" fill-opacity="1" stroke="#000" stroke-dasharray="none" stroke-dashoffset="0" stroke-linecap="round" stroke-linejoin="miter" stroke-miterlimit="4" stroke-opacity="1" stroke-width="1" display="inline" opacity=".02" rx="8" ry="8"/><rect id="rect4164-4-7-5-3-8" width="29" height="29" x="427.5" y="363.5" fill="none" fill-opacity="1" stroke="#000" stroke-dasharray="none" stroke-dashoffset="0" stroke-linecap="round" stroke-linejoin="miter" stroke-miterlimit="4" stroke-opacity="1" stroke-width="1" display="inline" opacity=".07" rx="7" ry="7"/><rect id="rect4164-4-7-5-3" width="27" height="27" x="428.5" y="364.5" fill="none" fill-opacity="1" stroke="#000" stroke-dasharray="none" stroke-dashoffset="0" stroke-linecap="round" stroke-linejoin="miter" stroke-miterlimit="4" stroke-opacity="1" stroke-width="1" display="inline" opacity=".13" rx="6" ry="6"/><rect id="rect4164-4-7-5" width="25" height="25" x="429.5" y="365.5" fill="none" fill-opacity="1" stroke="#000" stroke-dasharray="none" stroke-dashoffset="0" stroke-linecap="round" stroke-linejoin="miter" stroke-miterlimit="4" stroke-opacity="1" stroke-width="1" display="inline" opacity=".2" rx="5" ry="5"/><path id="rect4164-4-7" fill="none" fill-opacity="1" stroke="#000" stroke-dasharray="none" stroke-dashoffset="0" stroke-linecap="round" stroke-linejoin="miter" stroke-miterlimit="4" stroke-opacity="1" stroke-width="1" d="M 431.64844,388.30469 C 432.37319,389.0416 433.37997,389.5 434.5,389.5 l 15.00023,0 c 1.12003,0 2.12681,-0.4584 2.85156,-1.19531 -0.2591,0.12217 -0.5451,0.19531 -0.85156,0.19531 l -19.00023,0 c -0.30646,0 -0.59246,-0.0731 -0.85156,-0.19531 z" display="inline" opacity=".25" transform="translate(-6.1035156e-5,0)"/></g></g></svg>