<svg xmlns="http://www.w3.org/2000/svg" xmlns:svg="http://www.w3.org/2000/svg" id="svg5995" width="18" height="18" version="1.1" viewBox="0 0 18 18"><metadata id="metadata6000"/><g id="layer1" transform="translate(0,-1034.3622)"><circle id="path4166" cx="9" cy="1043.362" r="8.5" fill="#fcfdfd" fill-opacity="1" stroke="#5294e2" stroke-dasharray="none" stroke-dashoffset="0" stroke-linecap="round" stroke-linejoin="miter" stroke-miterlimit="4" stroke-opacity="1" stroke-width="1" display="inline" opacity="1"/><g id="g4201" fill="#91949c" fill-opacity="1" display="inline" transform="translate(-19.06014,1044.3075)"><g id="g2996" fill="#91949c" fill-opacity="1" transform="matrix(0.75,0,0,0.75,22.062499,-6.9452236)"><g id="layer12" fill="#91949c" fill-opacity="1" transform="translate(-60,-518)"><g id="layer4-4-1" fill="#91949c" fill-opacity="1" display="inline" transform="translate(19,-242)"><path id="path10839-9" fill="#91949c" fill-opacity="1" fill-rule="nonzero" stroke="none" stroke-width="1.781" d="m 45,764 1,0 c 0.01037,-1.2e-4 0.02079,-4.6e-4 0.03125,0 0.254951,0.0112 0.50987,0.12858 0.6875,0.3125 L 49,766.59375 51.3125,764.3125 C 51.578125,764.082 51.759172,764.007 52,764 l 1,0 0,1 c 0,0.28647 -0.03434,0.55065 -0.25,0.75 l -2.28125,2.28125 2.25,2.25 C 52.906938,770.46942 52.999992,770.7347 53,771 l 0,1 -1,0 c -0.265301,-10e-6 -0.530586,-0.0931 -0.71875,-0.28125 L 49,769.4375 46.71875,771.71875 C 46.530586,771.90694 46.26529,772 46,772 l -1,0 0,-1 c -3e-6,-0.26529 0.09306,-0.53058 0.28125,-0.71875 l 2.28125,-2.25 L 45.28125,765.75 C 45.070508,765.55537 44.97809,765.28075 45,765 l 0,-1 z" color="#bebebe" direction="ltr" display="inline" enable-background="new" font-family="Andale Mono" font-size="medium" font-stretch="normal" font-style="normal" font-variant="normal" font-weight="normal" letter-spacing="normal" overflow="visible" text-anchor="start" text-decoration="none" visibility="visible" word-spacing="normal" writing-mode="lr-tb" style="line-height:normal;-inkscape-font-specification:'Andale Mono';text-indent:0;text-align:start;text-decoration-line:none;text-transform:none;block-progression:tb;marker:none"/></g></g></g></g></g></svg>