<svg xmlns="http://www.w3.org/2000/svg" xmlns:svg="http://www.w3.org/2000/svg" id="svg5386" width="32" height="84" version="1.1" viewBox="0 0 32 84"><defs id="defs5388"><clipPath id="clipPath4154" clipPathUnits="userSpaceOnUse"><rect id="rect4156" width="43" height="24.5" x="-5.5" y="-992.362" fill="#5294e2" fill-opacity="1" stroke="none" stroke-dasharray="none" stroke-dashoffset="0" stroke-linecap="round" stroke-linejoin="miter" stroke-miterlimit="4" stroke-opacity="1" stroke-width="1" opacity="1" rx="1.5" ry="1.5" transform="scale(1,-1)"/></clipPath></defs><metadata id="metadata5391"/><g id="layer1" transform="translate(0,-968.3622)"><rect id="rect4164-4-3" width="23" height="73.999" x="4.5" y="972.863" fill="none" fill-opacity="1" stroke="#000" stroke-dasharray="none" stroke-dashoffset="0" stroke-linecap="round" stroke-linejoin="miter" stroke-miterlimit="4" stroke-opacity="1" stroke-width="1" display="inline" opacity=".1" rx="2" ry="2"/><rect id="rect4164" width="22" height="21" x="5" y="973.363" fill="#f5f6f7" fill-opacity="1" stroke="none" stroke-dasharray="none" stroke-dashoffset="0" stroke-linecap="round" stroke-linejoin="miter" stroke-miterlimit="4" stroke-opacity="1" stroke-width="1" clip-path="url(#clipPath4154)" display="inline" opacity="1" rx="1.4" ry=".782" transform="matrix(1,0,0,1.7895356,0,-768.50527)"/><g id="g4271" display="inline" opacity=".75" transform="translate(-425.99995,606.36226)"><rect id="rect4164-4-7-5-3-8-8" width="31" height="83" x="426.5" y="362.5" fill="none" fill-opacity="1" stroke="#000" stroke-dasharray="none" stroke-dashoffset="0" stroke-linecap="round" stroke-linejoin="miter" stroke-miterlimit="4" stroke-opacity="1" stroke-width="1" display="inline" opacity=".01" rx="8" ry="8"/><rect id="rect4164-4-7-5-3-8" width="29" height="81" x="427.5" y="363.5" fill="none" fill-opacity="1" stroke="#000" stroke-dasharray="none" stroke-dashoffset="0" stroke-linecap="round" stroke-linejoin="miter" stroke-miterlimit="4" stroke-opacity="1" stroke-width="1" display="inline" opacity=".02" rx="7" ry="7"/><rect id="rect4164-4-7-5-3" width="27" height="79" x="428.5" y="364.5" fill="none" fill-opacity="1" stroke="#000" stroke-dasharray="none" stroke-dashoffset="0" stroke-linecap="round" stroke-linejoin="miter" stroke-miterlimit="4" stroke-opacity="1" stroke-width="1" display="inline" opacity=".04" rx="6" ry="6"/><rect id="rect4164-4-7-5" width="25" height="77" x="429.5" y="365.5" fill="none" fill-opacity="1" stroke="#000" stroke-dasharray="none" stroke-dashoffset="0" stroke-linecap="round" stroke-linejoin="miter" stroke-miterlimit="4" stroke-opacity="1" stroke-width="1" display="inline" opacity=".06" rx="5" ry="5"/><path id="rect4164-4-7" fill="none" fill-opacity="1" stroke="#000" stroke-dasharray="none" stroke-dashoffset="0" stroke-linecap="round" stroke-linejoin="miter" stroke-miterlimit="4" stroke-opacity="1" stroke-width="1" d="m 431.64838,440.30463 c 0.72475,0.73691 1.73153,1.19531 2.85156,1.19531 l 15.00023,0 c 1.12003,0 2.12681,-0.4584 2.85156,-1.19531 -0.2591,0.12217 -0.5451,0.19531 -0.85156,0.19531 l -19.00023,0 c -0.30646,0 -0.59246,-0.0731 -0.85156,-0.19531 z" display="inline" opacity=".09"/></g></g></svg>